<?xml version="1.0" encoding="utf-8"?>
<!-- Generator: Adobe Illustrator 25.1.0, SVG Export Plug-In . SVG Version: 6.00 Build 0)  -->
<svg version="1.1" id="Layer_1" xmlns="http://www.w3.org/2000/svg" xmlns:xlink="http://www.w3.org/1999/xlink" x="0px" y="0px"
	 viewBox="0 0 273 451" style="enable-background:new 0 0 273 451;" xml:space="preserve">
<style type="text/css">
	.st0{fill:#FFFFFF;}
	.st1{display:none;fill:#FFFFFF;}
	.st2{opacity:0.6;fill:#353535;}
</style>
<g id="gtWPnv.tif">
	<g>
		<path class="st0" d="M137,3.5l-2.9,0c-31,0.4-60.2,0.8-89.8,4.3c-1.2,0.1-2.4,0.3-3.5,0.4c-10.5,1.2-21.3,2.4-31.2,6.4
			c-6.6,2.6-9.4,6.8-9.4,14l0.1,7.5C0.4,66.6,0.7,98,0,128.9c-0.3,16.7,3.6,31.7,11.9,45.8c4,6.8,8.2,13.9,9.1,22.2
			c1,9.5,1.8,19.2,2.5,28.5c0.3,3.8,0.6,7.5,0.9,11.2c2.1,25.3,4.3,50.7,6.5,76l1.1,13.4c0.8,9.5,1.6,19,2.4,28.5
			c2.2,25.2,4.4,51.2,6.5,76.8c0.7,8.4,3.2,11.6,10.9,13.7c8.5,2.3,17.9,3.7,30.4,4.6c35.8,2.4,72.4,2.4,108.6,0
			c12.5-0.8,21.8-2.3,30.4-4.6c6.6-1.8,9.8-5.2,10.3-11l1.3-14.4c1.5-17,3-34.5,4.5-51.6c0.9-10.5,1.8-21,2.7-31.6l0.3-4
			c3.4-40.4,7-82.2,10.1-123.3c1-13.5,4.7-25.3,11.3-36c0.5-0.9,1-1.8,1.5-2.8l0.1-0.1c0.2-0.4,0.5-0.9,0.7-1.3
			c5.9-11,8.8-22.2,8.6-34.3c-0.3-25.2-0.2-50.7-0.2-75.3v-1.4c0-9.5,0-19,0-28.5c0-9-1.9-11.9-10.4-15.2
			c-6.8-2.7-14.3-3.7-21.6-4.7L238,9.1c-31.2-4.4-62.9-5-93.7-5.5L137,3.5z M140.7,435.2c-6.7,0-13.4,0-19.9-0.1
			c-22.2-0.2-40.2-1.4-56.5-3.8c-3.6-0.5-7.4-1.9-7.8-8.1c-1.5-18.9-3.1-38-4.7-56.5l0-0.2c-0.6-6.6-1.1-13.1-1.7-19.7l-3.2-37.5
			c-1.5-17.3-2.9-34.6-4.4-51.9c-0.5-5.8-1-11.5-1.5-17.3c-1.1-12.6-2.3-25.5-3.1-38.3c-0.8-11.4-4.3-22.1-10.7-32.8
			c-7.8-12.9-11.3-26.5-11-41.8c0.6-24.4,0.4-49.2,0.2-73.2c0-6-0.1-11.9-0.1-17.9c0-5.2,2.1-7.9,7.2-8.8
			c23.7-4.4,47.3-5.8,69.3-6.7c10-0.4,20.2-0.3,30.1-0.2c4.5,0,8.9,0.1,13.4,0.1c29.7-0.4,65-0.2,100.8,4.8c1.2,0.2,2.5,0.3,3.8,0.4
			c4.7,0.4,9.5,0.8,13,3.6c4.3,3.4,3.9,9.2,3.6,13.9c-0.1,1.2-0.2,2.4-0.1,3.5c0.1,13.8-0.2,27.8-0.4,41.4
			c-0.3,14.8-0.5,30.2-0.4,45.3c0.1,11.7-2,20.6-6.8,27.9c-12.4,18.9-15,41-16.5,60.1c-3.4,44.8-7.3,90.3-11.1,134.3l0,0.2
			c-1.5,17.7-3,35.5-4.5,53.2c-0.1,1.3-0.2,2.5-0.3,3.8l0,0.4c-0.3,3.5-0.6,7-0.8,10.6c-0.2,4.4-2.4,6.8-7,7.5
			C185.5,434.7,161.3,435.2,140.7,435.2z"/>
		<path class="st1" d="M137,2l-2.9,0c-31,0.4-60.3,0.8-90,4.3c-1.2,0.1-2.3,0.3-3.5,0.4C30,8,19,9.2,8.9,13.2
			C1.7,16.1-1.4,20.9-1.4,28.7l0.1,7.5c0.2,30.4,0.5,61.8-0.1,92.7c-0.4,17,3.6,32.2,12.1,46.6c4,6.7,8,13.6,8.9,21.6
			c1,9.5,1.8,19.1,2.5,28.5c0.3,3.8,0.6,7.5,0.9,11.2c2.1,25.3,4.3,50.7,6.5,76l1.1,13.4c0.8,9.5,1.6,19,2.4,28.5
			c2.2,25.2,4.4,51.2,6.5,76.8c0.7,9,3.8,12.8,12,15c8.6,2.3,18.1,3.8,30.7,4.6c35.9,2.5,72.5,2.5,108.8,0c12.6-0.9,22-2.3,30.7-4.7
			c7.2-2,10.9-5.9,11.4-12.3l1.3-14.4c1.5-16.9,3-34.4,4.5-51.6c1-11.8,2-23.5,3-35.3c3.4-40.5,7-82.3,10.1-123.5
			c1-13.2,4.6-24.8,11.1-35.4c0.6-0.9,1.1-1.9,1.6-2.9c0.2-0.5,0.5-0.9,0.8-1.4c6-11.2,8.9-22.6,8.8-35c-0.3-25.1-0.2-50.6-0.2-75.3
			c0-10,0-19.9,0-29.9c0-9.6-2.3-13.1-11.3-16.6C255.6,10,248,9,240.7,8l-2.5-0.3c-31.2-4.4-63.1-5-93.8-5.5L137,2z M140.7,433.7
			c-6.7,0-13.3,0-19.9-0.1c-22.2-0.2-40.1-1.4-56.3-3.8c-3.8-0.6-6.2-1.9-6.6-6.8c-1.5-18.9-3.1-38.2-4.7-56.8
			c-0.6-6.6-1.1-13.1-1.7-19.7l-3.2-37.5c-1.5-17.3-2.9-34.6-4.4-51.9c-0.5-5.8-1-11.6-1.5-17.3c-1.1-12.6-2.3-25.5-3.1-38.3
			C38.5,190,35,179,28.4,168.1c-7.6-12.6-11.1-26-10.8-41c0.6-24.4,0.4-49.2,0.3-73.2c0-6-0.1-11.9-0.1-17.9c0-4.5,1.6-6.5,6-7.3
			c23.6-4.4,47.1-5.8,69.1-6.6c10-0.4,20.2-0.3,30-0.2c4.5,0,8.9,0.1,13.4,0.1c29.7-0.4,64.9-0.2,100.6,4.8c1.2,0.2,2.5,0.3,3.9,0.4
			c4.4,0.4,9,0.8,12.1,3.3c3.7,3,3.4,8.1,3.1,12.6c-0.1,1.3-0.2,2.5-0.1,3.6c0.1,13.8-0.2,27.8-0.4,41.4
			c-0.3,14.9-0.6,30.2-0.4,45.4c0.1,11.4-1.9,20-6.6,27c-12.6,19.2-15.2,41.5-16.7,60.8c-3.4,44.8-7.4,90.4-11.1,134.5
			c-1.5,17.7-3,35.5-4.5,53.2c-0.1,1.4-0.2,2.8-0.4,4.2c-0.3,3.5-0.6,7.1-0.8,10.6c-0.2,3.7-1.9,5.5-5.8,6
			C186.4,433.1,163.4,433.7,140.7,433.7z"/>
	</g>
</g>
<path class="st2" d="M140.7,435.2c-6.7,0-13.4,0-19.9-0.1c-22.2-0.2-40.2-1.4-56.5-3.8c-3.6-0.5-7.4-1.9-7.8-8.1
	c-1.5-18.9-3.1-38-4.7-56.5l0-0.2c-0.6-6.6-1.1-13.1-1.7-19.7l-3.2-37.5c-1.5-17.3-2.9-34.6-4.4-51.9c-0.5-5.8-1-11.5-1.5-17.3
	c-1.1-12.6-2.3-25.5-3.1-38.3c-0.8-11.4-4.3-22.1-10.7-32.8c-7.8-12.9-11.3-26.5-11-41.8c0.6-24.4,0.4-49.2,0.2-73.2
	c0-6-0.1-11.9-0.1-17.9c0-5.2,2.1-7.9,7.2-8.8c23.7-4.4,47.3-5.8,69.3-6.7c10-0.4,20.2-0.3,30.1-0.2c4.5,0,8.9,0.1,13.4,0.1
	c29.7-0.4,65-0.2,100.8,4.8c1.2,0.2,2.5,0.3,3.8,0.4c4.7,0.4,9.5,0.8,13,3.6c4.3,3.4,3.9,9.2,3.6,13.9c-0.1,1.2-0.2,2.4-0.1,3.5
	c0.1,13.8-0.2,27.8-0.4,41.4c-0.3,14.8-0.5,30.2-0.4,45.3c0.1,11.7-2,20.6-6.8,27.9c-12.4,18.9-15,41-16.5,60.1
	c-3.4,44.8-7.3,90.3-11.1,134.3l0,0.2c-1.5,17.7-3,35.5-4.5,53.2c-0.1,1.3-0.2,2.5-0.3,3.8l0,0.4c-0.3,3.5-0.6,7-0.8,10.6
	c-0.2,4.4-2.4,6.8-7,7.5C185.5,434.7,161.3,435.2,140.7,435.2z"/>
</svg>
