<?xml version="1.0" encoding="utf-8"?>
<!-- Generator: Adobe Illustrator 25.1.0, SVG Export Plug-In . SVG Version: 6.00 Build 0)  -->
<svg version="1.1" id="Layer_1" xmlns="http://www.w3.org/2000/svg" xmlns:xlink="http://www.w3.org/1999/xlink" x="0px" y="0px"
	 viewBox="0 0 273 451" style="enable-background:new 0 0 273 451;" xml:space="preserve">
<style type="text/css">
	.st0{display:none;fill:#FFFFFF;}
	.st1{fill:url(#SVGID_1_);}
</style>
<g id="gtWPnv.tif">
	<g>
		<path class="st0" d="M137.04,1.99l-2.94,0.04c-31.01,0.42-60.3,0.82-89.98,4.31c-1.18,0.14-2.35,0.27-3.53,0.41
			c-10.59,1.21-21.54,2.47-31.64,6.5c-7.2,2.88-10.38,7.63-10.32,15.43l0.06,7.48c0.23,30.4,0.48,61.83-0.15,92.73
			c-0.35,17,3.62,32.25,12.13,46.62c3.97,6.7,8.04,13.57,8.88,21.63c0.99,9.48,1.78,19.14,2.54,28.48c0.31,3.75,0.61,7.5,0.93,11.24
			c2.15,25.33,4.3,50.65,6.45,75.98l1.13,13.36c0.81,9.49,1.62,18.97,2.43,28.46c2.15,25.16,4.37,51.18,6.47,76.78
			c0.74,9.01,3.76,12.8,11.97,15.02c8.62,2.34,18.08,3.76,30.69,4.62c35.9,2.45,72.52,2.45,108.84-0.01
			c12.57-0.85,22.03-2.3,30.67-4.69c7.22-2,10.85-5.91,11.41-12.32l1.26-14.36c1.49-16.92,3.02-34.42,4.47-51.63
			c0.99-11.78,1.99-23.55,2.98-35.33c3.43-40.48,6.97-82.33,10.12-123.52c1.01-13.24,4.63-24.81,11.06-35.37
			c0.56-0.92,1.06-1.88,1.59-2.88c0.25-0.48,0.5-0.95,0.75-1.42c6.05-11.2,8.93-22.65,8.8-35c-0.26-25.1-0.21-50.61-0.17-75.29
			c0.02-9.96,0.03-19.92,0.03-29.88c0-9.65-2.33-13.06-11.34-16.59c-6.99-2.74-14.58-3.8-21.91-4.82l-2.52-0.35
			c-31.25-4.45-63.07-4.98-93.83-5.49L137.04,1.99z M140.71,433.69c-6.66,0-13.29-0.05-19.87-0.11
			c-22.16-0.18-40.06-1.39-56.34-3.79c-3.77-0.56-6.19-1.88-6.57-6.76c-1.48-18.93-3.13-38.16-4.72-56.76
			c-0.56-6.56-1.12-13.12-1.68-19.68l-3.17-37.45c-1.46-17.3-2.93-34.6-4.39-51.89c-0.49-5.77-1.01-11.55-1.52-17.32
			c-1.12-12.55-2.29-25.52-3.14-38.31c-0.77-11.61-4.35-22.58-10.94-33.51c-7.6-12.61-11.12-26.02-10.75-40.99
			c0.59-24.39,0.42-49.23,0.26-73.24c-0.04-5.97-0.08-11.94-0.11-17.91c-0.02-4.52,1.6-6.5,5.97-7.31
			c23.57-4.38,47.13-5.78,69.08-6.64c10-0.39,20.16-0.29,29.99-0.19c4.47,0.04,8.94,0.09,13.41,0.09
			c29.71-0.41,64.88-0.16,100.64,4.77c1.23,0.17,2.52,0.28,3.89,0.4c4.43,0.38,9.01,0.78,12.13,3.28c3.69,2.95,3.35,8.08,3.06,12.6
			c-0.08,1.27-0.16,2.48-0.15,3.59c0.09,13.79-0.16,27.8-0.41,41.35c-0.27,14.87-0.55,30.24-0.37,45.35
			c0.14,11.38-1.95,19.97-6.58,27.04c-12.61,19.25-15.25,41.49-16.74,60.83c-3.44,44.84-7.35,90.4-11.12,134.46
			c-1.52,17.73-3.04,35.47-4.53,53.2c-0.12,1.4-0.25,2.8-0.37,4.19c-0.32,3.49-0.64,7.1-0.82,10.65c-0.18,3.66-1.9,5.46-5.75,6.04
			C186.38,433.06,163.35,433.69,140.71,433.69z"/>
		<linearGradient id="SVGID_1_" gradientUnits="userSpaceOnUse" x1="137" y1="423.9763" x2="137" y2="89">
			<stop  offset="0" style="stop-color:#FCE121"/>
			<stop  offset="0.7635" style="stop-color:#F4AE20"/>
		</linearGradient>
		<path class="st1" d="M30,145c-2-12-1-44-1-55c64,8,157,7,216-1c0,9,1,42-1,57c-1.32,4.61-10.16,22.25-11.73,24.84
			c-10.56,17.51-11.57,37.02-12.8,56.65c-1.84,29.32-4.27,58.6-6.44,87.9c-1.76,23.84-3.5,47.68-5.26,71.52
			c-0.62,8.44-1.52,16.87-1.8,25.32c-0.14,4.13-1.94,5.88-5.63,6.81c-9.72,2.42-19.65,3.33-29.57,3.89
			c-29.05,1.62-58.09,1.62-87.04-1.88c-14.38-1.74-14.95-1.91-16.1-15.98c-2.37-28.95-4.37-57.93-6.52-86.9
			c-2.22-29.96-4.45-59.92-6.65-89.89c-0.62-8.44-1.11-16.89-1.65-25.34c-0.66-10.37-5.11-19.5-9.44-28.65C41.4,170.1,31,152,30,145
			z"/>
	</g>
</g>
</svg>
