<?xml version="1.0" encoding="utf-8"?>
<!-- Generator: Adobe Illustrator 25.1.0, SVG Export Plug-In . SVG Version: 6.00 Build 0)  -->
<svg version="1.1" id="Layer_1" xmlns="http://www.w3.org/2000/svg" xmlns:xlink="http://www.w3.org/1999/xlink" x="0px" y="0px"
	 viewBox="0 0 232 473" style="enable-background:new 0 0 232 473;" xml:space="preserve">
<style type="text/css">
	.st0{fill:#FFFFFF;}
	.st1{opacity:0.5;fill:#7D9196;}
</style>
<g id="rGCcCz.tif">
	<g>
		<path class="st0" d="M116.61,473.24c-32.43,0-64.86,0.03-97.3-0.06c-2.64-0.01-6.34,1.42-7.71-1.7c-1.44-3.3-1.01-7.25-0.22-10.8
			c0.57-2.56,3.2-1.95,5.08-1.92c13.33,0.23,26.57-0.81,39.69-3.12c9.85-1.73,19.33-4.63,28.5-8.79
			c9.47-4.3,13.88-11.06,13.62-21.52c-0.35-14.13-0.41-28.28-0.01-42.41c0.5-17.46,0.67-34.91,0.59-52.36
			c-0.12-26.35-9.57-48.46-29.69-65.99c-9.9-8.63-19.81-17.23-29.85-25.7c-22.83-19.26-33.56-44.86-37.25-73.88
			C-3.7,119.56,3.67,75.57,16.64,32.2c2.48-8.28,5.38-16.44,7.73-24.75c1.53-5.41,4.97-7.52,10.25-7.49
			C40.78,0,46.93-0.13,53.08,0.02c26.58,0.62,53.16,0.64,79.75,0.18c20.77-0.36,41.55-0.28,62.32-0.28c7.4,0,9.01,1.29,11.56,8.53
			c11.5,32.71,19.95,66.09,23.72,100.68c2.67,24.5,2.33,48.64-3.35,72.72c-6.3,26.72-20.55,47.87-42.41,64.38
			c-10.99,8.3-21.65,17.16-30.63,27.75c-11.78,13.89-17.86,30.08-19.79,48.12c-1.46,13.64-0.24,27.23-0.15,40.85
			c0.15,22.12,0.27,44.24,0.29,66.36c0,5.62,2.21,9.89,6.63,13.23c11.46,8.64,24.83,11.63,38.69,13.14
			c12.55,1.36,25.1,2.81,37.73,3.1c3.37,0.08,4.94,1.38,4.72,4.79c-0.09,1.32-0.12,2.67,0.03,3.99c0.5,4.42-1.52,5.73-5.79,5.72
			c-33.26-0.12-66.53-0.07-99.79-0.07C116.61,473.22,116.61,473.23,116.61,473.24z M138.88,458.44c-2.34-1.63-4.04-2.68-5.58-3.92
			c-7.86-6.31-13.36-13.75-12.52-24.62c0.39-5.12,0.02-10.3-0.12-15.46c-0.88-31.74-2.04-63.49,0.2-95.2
			c1.65-23.25,10.8-43.34,27.95-59.5c10.53-9.92,20.95-19.97,32.11-29.18c17.81-14.7,29.94-32.85,34.22-55.77
			c2.54-13.58,3.25-27.27,2.94-41.13c-0.87-38.64-9.46-75.71-21.51-112.15c-2.21-6.68-3.18-7.31-10.5-7.31
			c-16.46-0.01-32.93,0.01-49.39,0.02c-29.43,0.01-58.87-0.01-88.3,0.02c-10.29,0.01-12.3,1.35-15.33,11.28
			c-2.91,9.53-5.57,19.15-8.01,28.81c-9.54,37.82-14.84,75.99-8.38,114.95c3.84,23.15,13.18,43.62,31.55,58.95
			c10.21,8.53,20.35,17.11,30.16,26.09c14.5,13.28,26.37,28.19,30.58,47.95c2.81,13.2,4.18,26.61,4.18,40.08
			c-0.01,23.77-0.48,47.54-0.74,71.31c-0.07,6.65-0.12,13.3-0.16,19.95c-0.04,5.76-1.79,10.68-6.39,14.53
			c-3.62,3.03-6.92,6.43-11.02,10.28C109.87,458.44,123.93,458.44,138.88,458.44z"/>
	</g>
</g>
<path class="st1" d="M140.09,458.62c-2.34-1.63-4.04-2.68-5.58-3.92c-7.86-6.31-13.36-13.75-12.52-24.62
	c0.39-5.12,0.02-10.3-0.12-15.46c-0.88-31.74-2.04-63.49,0.2-95.2c1.65-23.25,10.8-43.34,27.95-59.5
	c10.53-9.92,20.95-19.97,32.11-29.18c17.81-14.7,29.94-32.85,34.22-55.77c2.54-13.58,3.25-27.27,2.94-41.13
	c-0.87-38.64-9.46-75.71-21.51-112.15c-2.21-6.68-3.18-7.31-10.5-7.31c-16.46-0.01-32.93,0.01-49.39,0.02
	c-29.43,0.01-58.87-0.01-88.3,0.02c-10.29,0.01-12.3,1.35-15.33,11.28c-2.91,9.53-5.57,19.15-8.01,28.81
	c-9.54,37.82-14.84,75.99-8.38,114.95c3.84,23.15,13.18,43.62,31.55,58.95c10.21,8.53,20.35,17.11,30.16,26.09
	c14.5,13.28,26.37,28.19,30.58,47.95c2.81,13.2,4.18,26.61,4.18,40.08c-0.01,23.77-0.48,47.54-0.74,71.31
	c-0.07,6.65-0.12,13.3-0.16,19.95c-0.04,5.76-1.79,10.68-6.39,14.53c-3.62,3.03-6.92,6.43-11.02,10.28
	C111.08,458.62,125.14,458.62,140.09,458.62z"/>
</svg>
